Coordinates
version=1
nRows=5
nColumns=42
inDegrees=yes

Units are S.I. units (second, meters, Newtons, ...)
If the header above contains a line with 'inDegrees', this indicates whether rotational values are in degrees (yes) or radians (no).

endheader
time	pelvis_tilt	pelvis_list	pelvis_rotation	pelvis_tx	pelvis_ty	pelvis_tz	hip_flexion_r	hip_adduction_r	hip_rotation_r	knee_angle_r	knee_adduction_r	knee_angle_r_beta	ankle_angle_r	subtalar_angle_r	mtp_angle_r	hip_flexion_l	hip_adduction_l	hip_rotation_l	knee_angle_l	knee_adduction_l	knee_angle_l_beta	ankle_angle_l	subtalar_angle_l	mtp_angle_l	lumbar_extension	lumbar_bending	lumbar_rotation	arm_flex_r	arm_add_r	arm_rot_r	elbow_flex_r	pro_sup_r	wrist_flex_r	wrist_dev_r	arm_flex_l	arm_add_l	arm_rot_l	elbow_flex_l	pro_sup_l	wrist_flex_l	wrist_dev_l
      0.68000000	      4.53451373	     -0.84285708	      3.68925618	     -0.41675840	      0.97775656	     -0.25496881	     23.56183579	     -3.58730253	    -11.03240238	     15.16338259	      7.94764370	      0.26465095	     -2.83618112	     -6.99285599	     -7.64575577	    -22.47225849	     -8.29537208	      3.73019256	     17.16179299	     12.52916045	      0.29952979	     13.38503631	      4.03395881	     -7.64575577	    -15.98417260	      1.75914806	     -6.87181279	     -9.65665341	     -4.80585266	    -23.25416445	      9.80821097	     90.00000001	      0.00000000	      0.00000000	     19.88939863	    -21.33234327	     -2.78414182	     48.18284711	     90.00000001	      0.00000000	      0.00000000
      0.69000000	      4.47602075	     -1.48165680	      3.83560674	     -0.40066398	      0.97790491	     -0.25386617	     23.54276364	     -2.88767073	    -10.65805043	     16.44820864	      7.90835200	      0.28707540	     -4.69445708	     -8.94621076	     -7.63758320	    -22.48000116	     -9.12147358	      3.89114033	     18.61640353	     12.50635275	      0.32491754	     11.84700938	      3.19966000	     -7.63758320	    -15.77158936	      2.64395597	     -6.96660280	     -9.44099851	     -4.98154354	    -22.82372618	      8.99846025	     90.00000001	      0.00000000	      0.00000000	     18.84954231	    -20.93114953	     -3.92813794	     48.60420829	     90.00000001	      0.00000000	      0.00000000
      0.70000000	      4.64200699	     -2.07027875	      3.87045193	     -0.38445195	      0.97870194	     -0.25264969	     23.29998735	     -2.26967000	    -10.40665723	     17.88495039	      7.94375496	      0.31215127	     -5.51407880	     -9.32559901	     -7.63649297	    -22.69547913	     -9.91685192	      3.97926303	     20.06257323	     12.65361784	      0.35015796	     10.17619095	      2.80173314	     -7.63649297	    -15.82518805	      3.45726795	     -6.78429532	     -9.40895340	     -5.08452562	    -22.80428511	      8.96183127	     90.00000001	      0.00000000	      0.00000000	     18.15600485	    -20.71486178	     -4.03645312	     48.38312973	     90.00000001	      0.00000000	      0.00000000
      0.71000000	      4.63903983	     -2.77237412	      3.85425203	     -0.36836034	      0.97987583	     -0.25133349	     23.13251878	     -1.43446230	     -9.71118392	     19.05528917	      7.98564730	      0.33257754	     -7.22820955	    -11.66972187	     -7.62902923	    -22.41406652	    -10.77293056	      3.67588310	     22.10128189	     12.67487499	      0.38574014	      7.63268183	      1.44875183	     -7.62902923	    -15.68933279	      4.36774042	     -6.68030073	     -9.10768457	     -5.32293619	    -22.67066979	      8.64956056	     90.00000001	      0.00000000	      0.00000000	     17.19424383	    -20.05799269	     -5.19908655	     48.24905681	     90.00000001	      0.00000000	      0.00000000
      0.72000000	      4.87344241	     -3.40817546	      3.78997302	     -0.35223957	      0.98162613	     -0.24984118	     22.70717627	     -0.64948909	     -9.37232577	     20.34486568	      7.96262990	      0.35508489	     -7.58230251	    -12.21933865	     -7.62752598	    -22.26618131	    -11.61319104	      3.20911283	     24.25745605	     12.75117703	      0.42337248	      4.84353458	      0.71059295	     -7.62752598	    -15.84268740	      5.17574533	     -6.39484012	     -8.83212454	     -5.50579777	    -22.65823137	      8.68436720	     90.00000001	      0.00000000	      0.00000000	     16.36981927	    -19.71053810	     -5.30108114	     47.89645195	     90.00000001	      0.00000000	      0.00000000
